<svg width="28" height="25" viewBox="0 0 28 25" fill="none" xmlns="http://www.w3.org/2000/svg">
<path id="Icon" d="M7.58055 5.33079V6.08079C7.84208 6.08079 8.08473 5.94456 8.22089 5.72127L7.58055 5.33079ZM9.78582 1.71436V0.964355C9.52429 0.964355 9.28164 1.10059 9.14548 1.32388L9.78582 1.71436ZM17.9768 1.71436L18.6172 1.32388C18.481 1.10059 18.2383 0.964355 17.9768 0.964355V1.71436ZM20.1821 5.33079L19.5417 5.72127C19.6779 5.94456 19.9206 6.08079 20.1821 6.08079V5.33079ZM2.02979 20.7007V8.34449H0.529785V20.7007H2.02979ZM4.43017 6.08079H7.58055V4.58079H4.43017V6.08079ZM8.22089 5.72127L10.4262 2.10483L9.14548 1.32388L6.94021 4.94032L8.22089 5.72127ZM9.78582 2.46436H17.9768V0.964355H9.78582V2.46436ZM17.3365 2.10483L19.5417 5.72127L20.8224 4.94032L18.6172 1.32388L17.3365 2.10483ZM20.1821 6.08079H23.3325V4.58079H20.1821V6.08079ZM25.7328 8.34449V20.7007H27.2328V8.34449H25.7328ZM25.7328 20.7007C25.7328 21.9199 24.6899 22.9644 23.3325 22.9644V24.4644C25.4549 24.4644 27.2328 22.8103 27.2328 20.7007H25.7328ZM23.3325 6.08079C24.6899 6.08079 25.7328 7.12529 25.7328 8.34449H27.2328C27.2328 6.23485 25.4549 4.58079 23.3325 4.58079V6.08079ZM2.02979 8.34449C2.02979 7.12529 3.07277 6.08079 4.43017 6.08079V4.58079C2.30775 4.58079 0.529785 6.23485 0.529785 8.34449H2.02979ZM4.43017 22.9644C3.07277 22.9644 2.02979 21.9199 2.02979 20.7007H0.529785C0.529785 22.8103 2.30775 24.4644 4.43017 24.4644V22.9644ZM17.8569 13.7691C17.8569 15.8206 16.1087 17.5397 13.8813 17.5397V19.0397C16.8737 19.0397 19.3569 16.711 19.3569 13.7691H17.8569ZM13.8813 17.5397C11.654 17.5397 9.90574 15.8206 9.90574 13.7691H8.40574C8.40574 16.711 10.8889 19.0397 13.8813 19.0397V17.5397ZM9.90574 13.7691C9.90574 11.7177 11.654 9.9986 13.8813 9.9986V8.4986C10.8889 8.4986 8.40574 10.8273 8.40574 13.7691H9.90574ZM13.8813 9.9986C16.1087 9.9986 17.8569 11.7177 17.8569 13.7691H19.3569C19.3569 10.8273 16.8737 8.4986 13.8813 8.4986V9.9986ZM23.3325 22.9644H4.43017V24.4644H23.3325V22.9644Z" fill="#091835"/>
</svg>
