<svg width="27" height="24" viewBox="0 0 27 24" fill="none" xmlns="http://www.w3.org/2000/svg">
<path id="Icon" d="M8.7355 13.0111L8.28952 12.4081L8.28951 12.4081L8.7355 13.0111ZM8.80482 12.9532L8.30734 12.3919L8.30672 12.3925L8.80482 12.9532ZM5.88846 15.1168L5.44248 14.5139L5.44247 14.5139L5.88846 15.1168ZM5.7325 15.2602L6.31895 15.7277L6.31895 15.7277L5.7325 15.2602ZM20.8456 13.0991L20.3639 13.674L20.8456 13.0991ZM18.4157 11.0629L17.934 11.6377L17.934 11.6377L18.4157 11.0629ZM17.5134 11.0574L17.0397 10.4759L17.0377 10.4775L17.5134 11.0574ZM13.0126 14.7498L13.4864 15.3313L13.4883 15.3296L13.0126 14.7498ZM12.0964 14.7323L11.5962 15.2911L11.5973 15.2921L12.0964 14.7323ZM12.0846 14.7217L11.5838 15.2801L11.5843 15.2805L12.0846 14.7217ZM12.0203 14.6672L12.4726 14.069L12.4726 14.069L12.0203 14.6672ZM9.8277 13.0095L10.28 12.4112L10.28 12.4112L9.8277 13.0095ZM9.76312 12.9547L10.2641 12.3966L10.2636 12.3961L9.76312 12.9547ZM9.75157 12.9444L10.252 12.3858L10.2509 12.3848L9.75157 12.9444ZM8.81727 12.9421L8.32093 12.3799L8.3198 12.3809L8.81727 12.9421ZM19.0433 5.81227V5.06227C18.6291 5.06227 18.2933 5.39806 18.2933 5.81227H19.0433ZM19.4938 5.81227H20.2438C20.2438 5.39806 19.908 5.06227 19.4938 5.06227V5.81227ZM19.4938 6.14528V6.89528C19.908 6.89528 20.2438 6.55949 20.2438 6.14528H19.4938ZM19.0433 6.14528H18.2933C18.2933 6.55949 18.6291 6.89528 19.0433 6.89528V6.14528ZM0.0217285 5.125V18.875H1.52173V5.125H0.0217285ZM5.4973 23.75H21.2492V22.25H5.4973V23.75ZM26.7248 18.875V5.125H25.2248V18.875H26.7248ZM21.2492 0.25H5.4973V1.75H21.2492V0.25ZM26.7248 5.125C26.7248 2.34011 24.1743 0.25 21.2492 0.25V1.75C23.5439 1.75 25.2248 3.35354 25.2248 5.125H26.7248ZM21.2492 23.75C24.1743 23.75 26.7248 21.6599 26.7248 18.875H25.2248C25.2248 20.6465 23.5439 22.25 21.2492 22.25V23.75ZM0.0217285 18.875C0.0217285 21.6599 2.57222 23.75 5.4973 23.75V22.25C3.20266 22.25 1.52173 20.6465 1.52173 18.875H0.0217285ZM1.52173 5.125C1.52173 3.35354 3.20267 1.75 5.4973 1.75V0.25C2.57222 0.25 0.0217285 2.34011 0.0217285 5.125H1.52173ZM9.18147 13.6141C9.23731 13.5728 9.28448 13.5303 9.30291 13.5139L8.30672 12.3925C8.30085 12.3977 8.29682 12.4013 8.29303 12.4046C8.28942 12.4078 8.28711 12.4098 8.28557 12.4111C8.28236 12.4138 8.28424 12.412 8.28952 12.4081L9.18147 13.6141ZM6.33445 15.7198L9.18148 13.6141L8.28951 12.4081L5.44248 14.5139L6.33445 15.7198ZM6.31895 15.7277C6.30942 15.7397 6.30376 15.7444 6.30659 15.7418C6.30784 15.7407 6.3106 15.7383 6.31534 15.7345C6.32009 15.7307 6.3263 15.7259 6.33445 15.7198L5.44247 14.5139C5.36405 14.5719 5.24904 14.6635 5.14606 14.7927L6.31895 15.7277ZM6.2473 15.9147C6.2473 15.8592 6.26619 15.7939 6.31895 15.7277L5.14606 14.7927C4.89361 15.1093 4.7473 15.5006 4.7473 15.9147H6.2473ZM6.2473 18.3021V15.9147H4.7473V18.3021H6.2473ZM6.15363 18.125C6.14823 18.125 6.16078 18.123 6.18275 18.1422C6.2062 18.1627 6.2473 18.2174 6.2473 18.3021H4.7473C4.7473 19.1252 5.47593 19.625 6.15363 19.625V18.125ZM20.5929 18.125H6.15363V19.625H20.5929V18.125ZM20.4992 18.3021C20.4992 18.2174 20.5403 18.1627 20.5638 18.1422C20.5857 18.123 20.5983 18.125 20.5929 18.125V19.625C21.2706 19.625 21.9992 19.1252 21.9992 18.3021H20.4992ZM20.4992 13.9257V18.3021H21.9992V13.9257H20.4992ZM20.3639 13.674C20.4668 13.7602 20.4992 13.8546 20.4992 13.9257H21.9992C21.9992 13.3728 21.7401 12.8702 21.3273 12.5243L20.3639 13.674ZM17.934 11.6377L20.3639 13.674L21.3273 12.5243L18.8975 10.488L17.934 11.6377ZM17.9871 11.6388C17.9763 11.6476 17.9676 11.6512 17.964 11.6524C17.9606 11.6536 17.9599 11.6533 17.9612 11.6533C17.9625 11.6533 17.9617 11.6536 17.958 11.6523C17.9541 11.6509 17.9451 11.6471 17.934 11.6377L18.8975 10.488C18.3696 10.0457 17.5725 10.0418 17.0397 10.4759L17.9871 11.6388ZM13.4883 15.3296L17.9891 11.6372L17.0377 10.4775L12.5369 14.17L13.4883 15.3296ZM11.5973 15.2921C12.1193 15.7576 12.9388 15.7774 13.4864 15.3313L12.5389 14.1683C12.5497 14.1595 12.5585 14.1559 12.5623 14.1547C12.5658 14.1536 12.5664 14.1539 12.5649 14.1539C12.5634 14.1539 12.5644 14.1535 12.5684 14.155C12.5727 14.1566 12.5829 14.1613 12.5955 14.1725L11.5973 15.2921ZM11.5843 15.2805L11.5962 15.2911L12.5966 14.1735L12.5848 14.1629L11.5843 15.2805ZM11.5679 15.2655C11.563 15.2617 11.5612 15.2601 11.5642 15.2626C11.5656 15.2638 11.5677 15.2657 11.5711 15.2687C11.5746 15.2718 11.5783 15.2752 11.5838 15.2801L12.5854 14.1634C12.5683 14.1481 12.5244 14.1081 12.4726 14.069L11.5679 15.2655ZM9.37538 13.6077L11.5679 15.2655L12.4726 14.069L10.28 12.4112L9.37538 13.6077ZM9.26215 13.5129C9.27933 13.5283 9.3234 13.5684 9.37538 13.6077L10.28 12.4112C10.285 12.415 10.2868 12.4167 10.2838 12.4141C10.2824 12.4129 10.2802 12.411 10.2769 12.408C10.2733 12.4049 10.2696 12.4015 10.2641 12.3966L9.26215 13.5129ZM9.25113 13.503L9.26269 13.5134L10.2636 12.3961L10.252 12.3858L9.25113 13.503ZM9.31361 13.5044C9.30083 13.5157 9.29034 13.5203 9.28598 13.5219C9.28198 13.5233 9.28133 13.5228 9.28318 13.5228C9.28503 13.5229 9.28429 13.5233 9.28016 13.5218C9.27564 13.5202 9.26504 13.5154 9.25221 13.504L10.2509 12.3848C9.71163 11.9035 8.8617 11.9025 8.32093 12.3799L9.31361 13.5044ZM9.30229 13.5145L9.31474 13.5034L8.3198 12.3809L8.30735 12.3919L9.30229 13.5145ZM19.0433 6.56227H19.4938V5.06227H19.0433V6.56227ZM18.7438 5.81227V6.14528H20.2438V5.81227H18.7438ZM19.4938 5.39528H19.0433V6.89528H19.4938V5.39528ZM19.7933 6.14528V5.81227H18.2933V6.14528H19.7933Z" fill="#091835"/>
</svg>
